<svg width="16" height="16" viewBox="0 0 16 16" fill="none" xmlns="http://www.w3.org/2000/svg">
<path d="M14.6458 8.16276C14.6458 7.98134 14.5742 7.8214 14.431 7.68294L9.68294 2.94922C9.60655 2.87283 9.52778 2.81793 9.44662 2.78451C9.37023 2.75109 9.28906 2.73438 9.20313 2.73438C9.02648 2.73438 8.87847 2.79405 8.75912 2.91341C8.63976 3.02799 8.58008 3.17361 8.58008 3.35026C8.58008 3.4362 8.5944 3.51975 8.62305 3.60091C8.65169 3.6773 8.69466 3.74414 8.75195 3.80143L10.3561 5.43424L13.1992 8.02669L13.3424 7.66862L11.0365 7.52539H1.97721C1.79102 7.52539 1.63824 7.58507 1.51888 7.70443C1.4043 7.82378 1.34701 7.97656 1.34701 8.16276C1.34701 8.34896 1.4043 8.50174 1.51888 8.62109C1.63824 8.74045 1.79102 8.80013 1.97721 8.80013H11.0365L13.3424 8.6569L13.1992 8.30599L10.3561 10.8913L8.75195 12.5241C8.69466 12.5814 8.65169 12.6506 8.62305 12.7318C8.5944 12.8082 8.58008 12.8893 8.58008 12.9753C8.58008 13.1519 8.63976 13.2975 8.75912 13.4121C8.87847 13.5315 9.02648 13.5911 9.20313 13.5911C9.375 13.5911 9.53017 13.5243 9.66862 13.3906L14.431 8.64258C14.5742 8.50412 14.6458 8.34418 14.6458 8.16276Z" fill="white"/>
</svg>
