<svg width="195" height="58" viewBox="0 0 195 58" xmlns="http://www.w3.org/2000/svg">
    <defs>
        <linearGradient x1="60.87%" y1="4.948%" x2="26.852%" y2="71.907%" id="fb6vr9mwha">
            <stop stop-color="#00A0FF" offset="0%"/>
            <stop stop-color="#00A1FF" offset="1%"/>
            <stop stop-color="#00BEFF" offset="26%"/>
            <stop stop-color="#00D2FF" offset="51%"/>
            <stop stop-color="#00DFFF" offset="76%"/>
            <stop stop-color="#00E3FF" offset="100%"/>
        </linearGradient>
        <linearGradient x1="107.685%" y1="50%" x2="-130.64%" y2="50%" id="g487i0pn3b">
            <stop stop-color="#FFE000" offset="0%"/>
            <stop stop-color="#FFBD00" offset="41%"/>
            <stop stop-color="orange" offset="78%"/>
            <stop stop-color="#FF9C00" offset="100%"/>
        </linearGradient>
        <linearGradient x1="86.219%" y1="30.623%" x2="-50.15%" y2="137.285%" id="bj2gs29qpc">
            <stop stop-color="#FF3A44" offset="0%"/>
            <stop stop-color="#C31162" offset="100%"/>
        </linearGradient>
        <linearGradient x1="-18.754%" y1="-12.765%" x2="42.121%" y2="34.87%" id="dgh29lvjad">
            <stop stop-color="#32A071" offset="0%"/>
            <stop stop-color="#2DA771" offset="7%"/>
            <stop stop-color="#15CF74" offset="48%"/>
            <stop stop-color="#06E775" offset="80%"/>
            <stop stop-color="#00F076" offset="100%"/>
        </linearGradient>
    </defs>
    <g fill-rule="nonzero" fill="none">
        <rect fill="#474646" width="194.173" height="58" rx="9.6"/>
        <g fill="#FFF">
            <path d="M99.172 31.062c-3.374.016-6.098 2.782-6.088 6.181.011 3.4 2.752 6.149 6.127 6.143 3.374-.005 6.106-2.762 6.107-6.162a6.1 6.1 0 0 0-1.776-4.394 6.007 6.007 0 0 0-4.37-1.768zm0 9.903a3.709 3.709 0 0 1-3.61-2.12 3.763 3.763 0 0 1 .633-4.16 3.694 3.694 0 0 1 4.073-.935 3.74 3.74 0 0 1 2.358 3.474c.047.96-.293 1.9-.944 2.604a3.529 3.529 0 0 1-2.51 1.137zm-13.399-9.903c-3.376.008-6.107 2.77-6.102 6.172.006 3.401 2.745 6.155 6.122 6.153 3.376-.003 6.111-2.761 6.111-6.163a6.1 6.1 0 0 0-1.775-4.394 6.007 6.007 0 0 0-4.37-1.768h.014zm0 9.903a3.709 3.709 0 0 1-3.619-2.108 3.763 3.763 0 0 1 .622-4.165 3.694 3.694 0 0 1 4.074-.943 3.74 3.74 0 0 1 2.363 3.475c.047.96-.293 1.9-.944 2.604a3.529 3.529 0 0 1-2.51 1.137h.014zm-15.96-8.004v2.61h6.217a5.486 5.486 0 0 1-1.439 3.292 6.336 6.336 0 0 1-4.792 1.914c-3.816 0-6.909-3.117-6.909-6.96 0-3.844 3.093-6.96 6.909-6.96a6.594 6.594 0 0 1 4.706 1.87l1.827-1.841a9.018 9.018 0 0 0-6.52-2.712 9.496 9.496 0 0 0-8.545 4.678 9.646 9.646 0 0 0 0 9.799 9.496 9.496 0 0 0 8.546 4.678 8.602 8.602 0 0 0 6.635-2.683 8.738 8.738 0 0 0 2.245-6.119 8.574 8.574 0 0 0-.144-1.638l-8.736.072zm65.21 2.03a5.762 5.762 0 0 0-5.24-3.93 5.737 5.737 0 0 0-4.203 1.825 5.826 5.826 0 0 0-1.553 4.338 6.056 6.056 0 0 0 1.737 4.381 5.964 5.964 0 0 0 4.336 1.782 6.075 6.075 0 0 0 5.095-2.726l-2.087-1.45a3.492 3.492 0 0 1-3.008 1.71 3.107 3.107 0 0 1-2.965-1.87l8.19-3.407-.303-.653zm-8.348 2.059a3.394 3.394 0 0 1 .848-2.474 3.343 3.343 0 0 1 2.347-1.122 2.372 2.372 0 0 1 2.274 1.305l-5.47 2.291zm-6.65 5.974h2.692V24.899h-2.691v18.125zm-4.403-10.585h-.1a4.303 4.303 0 0 0-3.224-1.45c-3.267.16-5.834 2.875-5.834 6.17s2.567 6.01 5.834 6.17a4.16 4.16 0 0 0 3.223-1.45h.087v.884c0 2.364-1.252 3.625-3.267 3.625a3.384 3.384 0 0 1-3.08-2.19l-2.346.987a5.829 5.829 0 0 0 5.426 3.64c3.152 0 5.756-1.871 5.756-6.424V31.424h-2.475v1.015zm-3.08 8.526c-1.924-.17-3.4-1.795-3.4-3.741 0-1.946 1.476-3.57 3.4-3.741.93.048 1.801.472 2.416 1.177.615.704.922 1.629.851 2.564.08.94-.226 1.871-.846 2.578a3.415 3.415 0 0 1-2.435 1.163h.014zm35.087-16.066h-6.433v18.125h2.692v-6.873h3.756a5.587 5.587 0 0 0 5.181-2.69 5.677 5.677 0 0 0 0-5.872 5.587 5.587 0 0 0-5.181-2.69h-.015zm0 8.7h-3.756v-6.177h3.814c1.705 0 3.087 1.393 3.087 3.11 0 1.718-1.382 3.11-3.087 3.11l-.058-.043zm16.594-2.61a5.03 5.03 0 0 0-4.792 2.77l2.389 1a2.543 2.543 0 0 1 2.446-1.334c.69-.081 1.384.12 1.925.56.542.438.885 1.078.954 1.775v.188a5.908 5.908 0 0 0-2.807-.696c-2.576 0-5.18 1.45-5.18 4.075a4.203 4.203 0 0 0 1.394 2.943 4.14 4.14 0 0 0 3.067 1.044c1.38.1 2.705-.567 3.454-1.74h.086v1.45h2.59V36.05c0-3.176-2.388-5.017-5.454-5.017l-.072-.044zm-.33 9.933c-.879 0-2.102-.45-2.102-1.537 0-1.45 1.525-1.929 2.878-1.929a4.75 4.75 0 0 1 2.447.609 3.262 3.262 0 0 1-3.152 2.9l-.072-.043zm15.298-9.498-3.08 7.859h-.087l-3.195-7.859h-2.878l4.793 10.991-2.735 6.105h2.807l7.368-17.096h-2.993zm-24.193 11.6h2.691V24.899h-2.691v18.125z"/>
            <path d="M68.674 14.576a3.946 3.946 0 0 1-1.08 2.9 4.172 4.172 0 0 1-3.166 1.29 4.534 4.534 0 0 1-4.157-2.828 4.593 4.593 0 0 1 .977-4.958 4.301 4.301 0 0 1 3.18-1.305 4.433 4.433 0 0 1 1.77.363c.521.211.985.544 1.353.971l-.763.769a2.869 2.869 0 0 0-2.36-1.03 3.327 3.327 0 0 0-2.412 1.021 3.378 3.378 0 0 0-.941 2.46 3.423 3.423 0 0 0 2.048 3.188c1.259.549 2.722.28 3.709-.68a2.751 2.751 0 0 0 .72-1.77h-3.124v-1.043h4.188c.038.215.058.434.058.652zm6.591-3.625H71.38v2.755h3.54v1.044h-3.54v2.755h3.886v1.073h-5.037v-8.7h5.037v1.073zm4.72 7.627h-1.108v-7.627H76.46V9.878h6.001v1.073h-2.475v7.627zm6.707 0v-8.7H87.8v8.7h-1.108zm6.03 0h-1.108v-7.627h-2.418V9.878h5.93v1.073h-2.404v7.627zm13.644-1.13a4.467 4.467 0 0 1-6.333 0 4.724 4.724 0 0 1 0-6.453 4.445 4.445 0 0 1 3.167-1.328c1.188 0 2.328.478 3.166 1.328a4.71 4.71 0 0 1 0 6.452zm-5.512-.726a3.307 3.307 0 0 0 4.691 0 3.733 3.733 0 0 0 0-4.988 3.307 3.307 0 0 0-4.691 0 3.733 3.733 0 0 0 0 4.988zm8.347 1.856v-8.7h1.353l4.202 6.772V9.878h1.108v8.7h-1.151l-4.39-7.09v7.09h-1.122z" stroke="#FFF" stroke-width=".6"/>
        </g>
        <path d="M.676.588a2.914 2.914 0 0 0-.662 2.03v32.074a2.914 2.914 0 0 0 .662 2.03l.101.102L18.61 18.873v-.42L.777.486l-.1.101z" fill="url(#fb6vr9mwha)" transform="translate(15.431 10.345)"/>
        <path d="m24.51 24.861-5.901-5.988v-.42l5.9-6.004.13.073 7.066 4.045c2.015 1.146 2.015 3.03 0 4.19l-7.037 4.032-.159.072z" fill="url(#g487i0pn3b)" transform="translate(15.431 10.345)"/>
        <path d="m24.682 24.774-6.073-6.119L.676 36.722c.848.75 2.105.787 2.994.087l21.026-12.035" fill="url(#bj2gs29qpc)" transform="translate(15.431 10.345)"/>
        <path d="M24.682 12.536 3.656.501A2.332 2.332 0 0 0 .662.588l17.947 18.067 6.073-6.119z" fill="url(#dgh29lvjad)" transform="translate(15.431 10.345)"/>
        <path d="M39.94 34.989 19.087 46.95a2.39 2.39 0 0 1-2.879 0l-.1.102.1.101a2.375 2.375 0 0 0 2.879 0l21.026-12.035-.173-.13z" fill="#000" opacity=".2"/>
        <path d="M16.108 46.864a2.914 2.914 0 0 1-.662-2.03v.218a2.914 2.914 0 0 0 .662 2.03l.1-.102-.1-.116zm31.028-15.979-7.196 4.104.13.13 7.066-4.031A2.537 2.537 0 0 0 48.576 29a2.694 2.694 0 0 1-1.44 1.885z" fill="#000" opacity=".12"/>
        <path d="m19.087 11.049 28.05 16.066A2.694 2.694 0 0 1 48.575 29a2.537 2.537 0 0 0-1.44-2.088l-28.05-16.066c-2.014-1.145-3.655-.188-3.655 2.132v.217c.043-2.334 1.655-3.291 3.656-2.146z" fill="#FFF" opacity=".25"/>
    </g>
</svg>
