<svg width="195" height="58" viewBox="0 0 195 58" xmlns="http://www.w3.org/2000/svg">
    <g fill-rule="nonzero" fill="none">
        <rect fill="#474646" width="194.173" height="58" rx="9.6"/>
        <g fill="#FFF">
            <path d="M62.08 39.352h-6.813l-1.636 4.867h-2.885l6.452-18.006h2.998l6.452 18.006h-2.934l-1.635-4.867zm-6.108-2.245h5.4l-2.662-7.899h-.074l-2.664 7.899zm24.611.55c0 4.079-2.167 6.7-5.437 6.7a4.41 4.41 0 0 1-4.1-2.297h-.062v6.502H68.31v-17.47h2.59v2.183h.049a4.615 4.615 0 0 1 4.148-2.32c3.307 0 5.487 2.633 5.487 6.701zm-2.749 0c0-2.659-1.363-4.406-3.443-4.406-2.044 0-3.418 1.784-3.418 4.405 0 2.645 1.374 4.417 3.418 4.417 2.08 0 3.443-1.735 3.443-4.417zm17.09 0c0 4.079-2.167 6.7-5.437 6.7a4.41 4.41 0 0 1-4.1-2.297h-.062v6.502h-2.674v-17.47h2.589v2.183h.049a4.615 4.615 0 0 1 4.149-2.32c3.307 0 5.487 2.633 5.487 6.701zm-2.749 0c0-2.659-1.363-4.406-3.443-4.406-2.043 0-3.418 1.784-3.418 4.405 0 2.645 1.375 4.417 3.418 4.417 2.08 0 3.443-1.735 3.443-4.417zm12.228 1.545c.198 1.786 1.92 2.958 4.272 2.958 2.255 0 3.877-1.172 3.877-2.782 0-1.398-.979-2.235-3.295-2.808l-2.316-.562c-3.282-.799-4.805-2.345-4.805-4.854 0-3.107 2.687-5.241 6.503-5.241 3.776 0 6.365 2.134 6.452 5.24h-2.7c-.161-1.796-1.636-2.88-3.79-2.88-2.155 0-3.629 1.097-3.629 2.694 0 1.273.942 2.022 3.245 2.595l1.97.487c3.666.874 5.19 2.358 5.19 4.992 0 3.369-2.664 5.478-6.9 5.478-3.963 0-6.64-2.06-6.812-5.317h2.738zm16.746-11.217v3.106h2.478v2.134h-2.478v7.238c0 1.124.496 1.648 1.585 1.648.294-.005.588-.026.88-.062v2.12c-.49.093-.988.135-1.486.125-2.638 0-3.666-.998-3.666-3.544v-7.525h-1.895v-2.134h1.895v-3.106h2.687zm3.913 9.671c0-4.13 2.414-6.726 6.18-6.726 3.777 0 6.18 2.596 6.18 6.726 0 4.142-2.39 6.726-6.18 6.726-3.79 0-6.18-2.584-6.18-6.726zm9.635 0c0-2.833-1.288-4.506-3.456-4.506-2.167 0-3.454 1.685-3.454 4.506 0 2.845 1.287 4.504 3.454 4.504 2.168 0 3.456-1.66 3.456-4.504zm4.93-6.565h2.552v2.235h.061a3.111 3.111 0 0 1 3.135-2.372c.308-.001.615.033.916.1v2.521a3.713 3.713 0 0 0-1.202-.163 2.685 2.685 0 0 0-2.083.865 2.728 2.728 0 0 0-.704 2.156v7.786h-2.674V31.091zm18.995 9.273c-.36 2.383-2.663 4.018-5.61 4.018-3.79 0-6.143-2.559-6.143-6.664 0-4.117 2.365-6.788 6.03-6.788 3.605 0 5.872 2.495 5.872 6.475v.924h-9.203v.163a3.435 3.435 0 0 0 .92 2.656 3.38 3.38 0 0 0 2.586 1.062 2.946 2.946 0 0 0 3.009-1.846h2.54zm-9.041-3.919h6.514a3.17 3.17 0 0 0-.875-2.37 3.122 3.122 0 0 0-2.32-.961 3.286 3.286 0 0 0-2.349.969 3.336 3.336 0 0 0-.97 2.362zM55.637 12.66a3.784 3.784 0 0 1 3.03 1.186 3.846 3.846 0 0 1 1.011 3.113c0 2.764-1.483 4.353-4.04 4.353h-3.103V12.66h3.102zm-1.768 7.428h1.62a2.69 2.69 0 0 0 2.15-.877c.55-.603.8-1.424.681-2.234a2.74 2.74 0 0 0-.692-2.22 2.697 2.697 0 0 0-2.14-.874H53.87v6.205zm7.316-2.044a3.1 3.1 0 0 1 1.437-2.923 3.05 3.05 0 0 1 3.238 0 3.1 3.1 0 0 1 1.437 2.923 3.101 3.101 0 0 1-1.436 2.928 3.051 3.051 0 0 1-3.24 0 3.101 3.101 0 0 1-1.436-2.928zm4.796 0c0-1.415-.63-2.243-1.738-2.243-1.112 0-1.737.828-1.737 2.243 0 1.427.625 2.248 1.737 2.248 1.107 0 1.738-.827 1.738-2.248zm9.44 3.268h-1.326l-1.34-4.81h-.1l-1.334 4.81h-1.314l-1.787-6.53h1.298l1.16 4.983h.096l1.332-4.983h1.227l1.333 4.983h.1l1.156-4.983h1.28l-1.78 6.53zm3.283-6.53h1.23v1.038h.096a1.938 1.938 0 0 1 1.934-1.164 2.1 2.1 0 0 1 1.701.671c.437.473.636 1.12.542 1.758v4.227h-1.279v-3.904c0-1.049-.452-1.57-1.398-1.57a1.48 1.48 0 0 0-1.151.468 1.505 1.505 0 0 0-.397 1.186v3.82h-1.278v-6.53zm7.541-2.548h1.28v9.078h-1.28v-9.078zm3.057 5.81a3.101 3.101 0 0 1 1.438-2.923 3.051 3.051 0 0 1 3.237 0 3.101 3.101 0 0 1 1.438 2.923 3.102 3.102 0 0 1-1.436 2.928 3.051 3.051 0 0 1-3.241 0 3.102 3.102 0 0 1-1.436-2.928zm4.797 0c0-1.415-.631-2.243-1.739-2.243-1.111 0-1.737.828-1.737 2.243 0 1.427.626 2.248 1.737 2.248 1.108 0 1.739-.827 1.739-2.248zm2.662 1.421c0-1.175.869-1.853 2.41-1.949l1.756-.102v-.563c0-.69-.452-1.08-1.327-1.08-.714 0-1.208.265-1.35.726h-1.238c.13-1.121 1.177-1.84 2.647-1.84 1.625 0 2.542.814 2.542 2.194v4.46h-1.232v-.917h-.1a2.176 2.176 0 0 1-1.947 1.025 1.948 1.948 0 0 1-1.51-.494 1.979 1.979 0 0 1-.65-1.46zm4.166-.558v-.546l-1.582.102c-.893.06-1.298.366-1.298.942 0 .588.506.93 1.202.93a1.52 1.52 0 0 0 1.14-.356c.316-.269.51-.656.538-1.072zm2.954-.863c0-2.063 1.053-3.37 2.69-3.37a2.133 2.133 0 0 1 1.988 1.146h.095v-3.586h1.28v9.078h-1.226V20.28h-.101a2.246 2.246 0 0 1-2.036 1.14c-1.648 0-2.69-1.308-2.69-3.376zm1.322 0c0 1.385.648 2.218 1.731 2.218 1.078 0 1.744-.845 1.744-2.212 0-1.36-.673-2.218-1.744-2.218-1.076 0-1.731.839-1.731 2.212zm10.022 0a3.1 3.1 0 0 1 1.437-2.923 3.05 3.05 0 0 1 3.238 0 3.1 3.1 0 0 1 1.437 2.923 3.101 3.101 0 0 1-1.435 2.928 3.051 3.051 0 0 1-3.242 0 3.101 3.101 0 0 1-1.435-2.928zm4.797 0c0-1.415-.631-2.243-1.739-2.243-1.112 0-1.737.828-1.737 2.243 0 1.427.625 2.248 1.737 2.248 1.108 0 1.739-.827 1.739-2.248zm3.031-3.262h1.231v1.038h.096a1.938 1.938 0 0 1 1.934-1.164 2.1 2.1 0 0 1 1.7.671c.437.473.637 1.12.543 1.758v4.227h-1.279v-3.904c0-1.049-.453-1.57-1.398-1.57a1.48 1.48 0 0 0-1.152.468 1.505 1.505 0 0 0-.396 1.186v3.82h-1.279v-6.53zm12.73-1.625v1.655h1.405v1.086h-1.404v3.357c0 .684.28.983.916.983.163 0 .326-.01.488-.03v1.074c-.23.041-.463.063-.696.066-1.422 0-1.989-.504-1.989-1.763v-3.687h-1.028v-1.086h1.028v-1.655h1.28zm3.152-.923h1.267v3.598h.102a1.992 1.992 0 0 1 1.976-1.17 2.127 2.127 0 0 1 1.684.688c.431.471.632 1.111.548 1.746v4.216h-1.28v-3.898c0-1.043-.483-1.57-1.387-1.57a1.508 1.508 0 0 0-1.197.444c-.315.32-.474.762-.434 1.21v3.814h-1.28v-9.078zm13.034 7.315a2.631 2.631 0 0 1-2.808 1.889 2.933 2.933 0 0 1-2.271-.987 2.98 2.98 0 0 1-.723-2.383 3.027 3.027 0 0 1 .722-2.393 2.98 2.98 0 0 1 2.266-1.019c1.803 0 2.891 1.242 2.891 3.292v.45h-4.576v.072c-.04.484.124.964.452 1.32.329.356.791.556 1.274.55a1.55 1.55 0 0 0 1.542-.791h1.23zm-4.499-2.104h3.273a1.582 1.582 0 0 0-.426-1.202 1.558 1.558 0 0 0-1.169-.49 1.651 1.651 0 0 0-1.193.49c-.316.318-.49.751-.485 1.202zM36.845 29.436a7.187 7.187 0 0 1 3.392-6.02 7.276 7.276 0 0 0-5.744-3.13c-2.417-.255-4.76 1.458-5.991 1.458-1.256 0-3.152-1.432-5.193-1.39a7.643 7.643 0 0 0-6.438 3.956c-2.783 4.855-.707 11.99 1.96 15.915 1.333 1.922 2.892 4.069 4.932 3.993 1.996-.084 2.742-1.283 5.152-1.283 2.387 0 3.086 1.283 5.168 1.234 2.142-.035 3.491-1.93 4.779-3.87a15.944 15.944 0 0 0 2.185-4.484 6.935 6.935 0 0 1-4.202-6.379zm-3.93-11.73a7.1 7.1 0 0 0 1.603-5.062 7.117 7.117 0 0 0-4.616 2.407 6.755 6.755 0 0 0-1.646 4.874 5.882 5.882 0 0 0 4.658-2.22z"/>
        </g>
    </g>
</svg>
